<svg xmlns="http://www.w3.org/2000/svg" viewBox="0 0 339.45 125.94"><defs><style>.cls-1{fill:#202020;}.cls-2{fill:none;stroke:#202020;stroke-miterlimit:10;stroke-width:2px;}</style></defs><g id="Layer_2" data-name="Layer 2"><g id="design"><path class="cls-1" d="M306.7,13.88a11.52,11.52,0,0,1-.32,1.8,9.68,9.68,0,0,1,7-2.76,10,10,0,0,1,7.2,2.72,9.28,9.28,0,0,1,2.68,7c0,6.43-4.2,10.55-10.8,10.55a10.79,10.79,0,0,1-7.63-2.72,12.44,12.44,0,0,1-2.52-3.76l3.28-1a5.94,5.94,0,0,0,1.28,2.32,7.4,7.4,0,0,0,5.67,2.36c4.48,0,7.48-3,7.48-7.63,0-4.4-2.76-7.28-7-7.28a8.3,8.3,0,0,0-5.24,1.68,5.18,5.18,0,0,0-1.83,2.4l-3-.28a31.87,31.87,0,0,0,.6-4.12l.87-9c.09-1.16.13-1.64.13-2.4a16,16,0,0,0-.08-1.72,27.06,27.06,0,0,0,4.23.2h8.24A26.27,26.27,0,0,0,321.61,2v3.4A27.75,27.75,0,0,0,316.93,5h-9.39Z"/><path class="cls-1" d="M302.39,52c-.4,16.16-1.16,20.84-4.6,27.59a9,9,0,0,0-2-2,25.89,25.89,0,0,0,3-8.91c.76-4.32,1.16-11.2,1.16-20.24a37.16,37.16,0,0,0-.16-3.88c1.4.12,2.72.16,4.8.16h21.16a37.74,37.74,0,0,0,4.19-.16c-.08.92-.12,1.6-.12,2.68v2.36a22.4,22.4,0,0,0,.12,2.56c-1.24-.08-2.32-.12-4-.12Zm25.07-2.16v-3H302.35v3ZM311.07,55a16,16,0,0,0-1.72-2.08l2.08-.8A16.8,16.8,0,0,1,313.51,55H320a14.61,14.61,0,0,0,1.84-2.92l2.28.92c-.6.8-1,1.28-1.6,2h3.28a36,36,0,0,0,3.67-.12c-.08,1-.12,2-.12,3.08v4.56c0,1.4,0,2.2.12,3.12-1-.08-2-.12-3.51-.12h-17.8a25.4,25.4,0,0,0-3.6.12,23.16,23.16,0,0,0,.16-3.2V58.2a22.19,22.19,0,0,0-.16-3.32,32.19,32.19,0,0,0,3.64.12Zm12.72,12.6a28.63,28.63,0,0,0,3.87-.16,23.38,23.38,0,0,0-.16,3.12v6a18.49,18.49,0,0,0,.21,3.36h-2.6V78.31H308.75V80h-2.56a22,22,0,0,0,.2-3.52V70.72a25.75,25.75,0,0,0-.16-3.24c.92.08,2.16.12,3.88.12ZM307,59.32h8.72V56.8H307Zm0,4.4h8.72V61.08H307ZM308.75,72h16.36V69.52H308.75Zm0,4.35h16.36V73.83H308.75Zm9.16-17.07h9.19V56.8h-9.19Zm0,4.4h9.19V61.08h-9.19Z"/><path class="cls-1" d="M257,33a27.69,27.69,0,0,0-4.64-.28h-25a32.72,32.72,0,0,0-4.88.28v-3.2a38.7,38.7,0,0,0,4.84.24h25a36.78,36.78,0,0,0,4.68-.24ZM225.49,2.4a26.54,26.54,0,0,0,4.6.28h19.16a29.55,29.55,0,0,0,4.8-.28V5.56a38,38,0,0,0-4.8-.24H230.09a34.15,34.15,0,0,0-4.6.24Zm2.44,13a26.87,26.87,0,0,0,4.16.24h15.28a27.59,27.59,0,0,0,4.16-.24v3.08a30,30,0,0,0-4.16-.2H232.13a28.89,28.89,0,0,0-4.2.2Z"/><path class="cls-1" d="M251.33,53.2a38.94,38.94,0,0,0,4.76-.2,43.28,43.28,0,0,0-.24,5V75.35a34.66,34.66,0,0,0,.24,4.8h-2.8V77.87H226.21v2.28h-2.8a30.68,30.68,0,0,0,.24-4.88V58a47.32,47.32,0,0,0-.24-5,37.91,37.91,0,0,0,4.68.2h7.48a23.28,23.28,0,0,0,2.36-5.72H226.37a32,32,0,0,0-4.24.24v-2.8a30.52,30.52,0,0,0,4.2.24h26.84a32,32,0,0,0,4.24-.24v2.8a31.15,31.15,0,0,0-4.24-.24H240.65a27.53,27.53,0,0,1-2.28,5.72Zm-25.12,2.2V75.63h6.56V55.4Zm17.84,0h-8.84v5.2h8.84Zm-8.84,12.48h8.84V62.76h-8.84Zm0,7.75h8.84V70h-8.84Zm11.28,0h6.8V55.4h-6.8Z"/><path class="cls-1" d="M166.67,30.75c3.08-6.43,6.12-15.35,6.72-19.83l3.08,1a44.32,44.32,0,0,0-1.6,4.84,105.81,105.81,0,0,1-5.36,14h9.24a35,35,0,0,0,4.4-.23v3a26.39,26.39,0,0,0-4.4-.28H152.11a28.75,28.75,0,0,0-4.6.28v-3a38.05,38.05,0,0,0,4.6.23Zm-3-27.47A18.79,18.79,0,0,0,163.39,0h3.16a18.35,18.35,0,0,0-.28,3.24V6.52H177a28.42,28.42,0,0,0,4.6-.28v3A36.71,36.71,0,0,0,177,9H153.51a34.15,34.15,0,0,0-4.43.24v-3a25.17,25.17,0,0,0,4.43.28h10.16Zm-6.6,8.08a92.58,92.58,0,0,1,4.32,15.8l-2.6,1a77.9,77.9,0,0,0-4.36-15.84Z"/><path class="cls-1" d="M152,62.28c0-1.8,0-2.92.12-4.88A30.19,30.19,0,0,1,148,63.24a9.44,9.44,0,0,0-1.6-2.28,38.32,38.32,0,0,0,7.75-12.2,24.17,24.17,0,0,0,1.52-5.24l2.8.84c-.36.84-.56,1.32-1.08,2.76a57.53,57.53,0,0,1-2.88,6.72V75.19a39.12,39.12,0,0,0,.2,4.68h-3a39.8,39.8,0,0,0,.24-4.8Zm13.12,9.56a18.1,18.1,0,0,0-3.24.2V69.4a18.05,18.05,0,0,0,3.28.2h3.32V61.2c0-1.84,0-3.2.08-4.92a36.71,36.71,0,0,1-4.8,8.64A36.73,36.73,0,0,1,157,72.08,7.09,7.09,0,0,0,155,70a33.61,33.61,0,0,0,8.32-8.48,32.87,32.87,0,0,0,4-7h-6.28a30.09,30.09,0,0,0-4,.24v-2.8a27.06,27.06,0,0,0,4,.24h7.28v-4.4a31.72,31.72,0,0,0-.28-3.92h3a20.88,20.88,0,0,0-.32,3.92v4.4h8.52a29.27,29.27,0,0,0,4.12-.24v2.8a30.27,30.27,0,0,0-4.08-.24h-7.56a45.5,45.5,0,0,0,5.64,8.8A33.3,33.3,0,0,0,184.71,70a9.15,9.15,0,0,0-2,2.24,37.79,37.79,0,0,1-5.68-5.64,37.82,37.82,0,0,1-6.36-10.4c.08,2.32.12,3.4.12,5v8.4h3.64a18.1,18.1,0,0,0,3.24-.2V72a18.38,18.38,0,0,0-3.24-.2h-3.64v3.91a34.56,34.56,0,0,0,.24,4.12h-2.92a34.46,34.46,0,0,0,.28-4.12V71.84Z"/><path class="cls-1" d="M82.38,14.32a86.43,86.43,0,0,1,8.12,7.56A71.53,71.53,0,0,0,95.81,17a58.39,58.39,0,0,0,6.6-8.68c.12-.2.16-.24.32-.48-.56,0-.56,0-22.83.08-2.16,0-3.28,0-4.64.16V4.88a29.07,29.07,0,0,0,4.68.24h23.31a4.88,4.88,0,0,0,2.24-.28l1.68,2A11.42,11.42,0,0,0,105.57,9,61.34,61.34,0,0,1,92.38,24c1.51,1.64,3.15,3.72,5.83,7.27l-2.44,2A75.61,75.61,0,0,0,80.18,16.08Z"/><path class="cls-1" d="M104.65,77.27a74.74,74.74,0,0,0-12.8-12.35,43,43,0,0,1-7.63,7.16,51.44,51.44,0,0,1-7.84,4.79,8.9,8.9,0,0,0-2-2.64,31.84,31.84,0,0,0,8.12-4.59,43.33,43.33,0,0,0,14.27-18c.08-.24.12-.28.2-.48a.85.85,0,0,0,.12-.28,6.79,6.79,0,0,1-1,0l-13.35.2a26.91,26.91,0,0,0-4.12.32l-.08-3.24a18.8,18.8,0,0,0,3.16.2h1l14.27-.16a7.46,7.46,0,0,0,2.56-.32l1.68,1.72a7.47,7.47,0,0,0-1.12,2,48.37,48.37,0,0,1-6.6,11.2,100.09,100.09,0,0,1,13.32,12Z"/><path class="cls-1" d="M91.17,89.16a8.69,8.69,0,0,0-.88,1.64,39.22,39.22,0,0,1-1.83,3.56c.52-.12.52-.12,12.07-.32a3.93,3.93,0,0,0,2.08-.28l1.72,1.68c-.36.48-.36.52-.8,2a42.32,42.32,0,0,1-8,15,39.23,39.23,0,0,1-13.91,10,6,6,0,0,0-2-2.36A34,34,0,0,0,93.73,110a36.75,36.75,0,0,0,6.88-13.4l-13.47.24a38.56,38.56,0,0,1-9.56,10.4,6,6,0,0,0-2.24-2.08,29.63,29.63,0,0,0,10-11,18.14,18.14,0,0,0,2.52-5.84Z"/><path class="cls-1" d="M30.23,33.27A74.29,74.29,0,0,0,17.44,20.92,43.42,43.42,0,0,1,9.8,28.08,51.44,51.44,0,0,1,2,32.87a8.9,8.9,0,0,0-2-2.64,31.84,31.84,0,0,0,8.12-4.59A43.35,43.35,0,0,0,22.4,7.6c.08-.24.12-.28.2-.48a.85.85,0,0,0,.12-.28,6.79,6.79,0,0,1-1,0L8.4,7.08a26.91,26.91,0,0,0-4.12.32L4.2,4.16a18.8,18.8,0,0,0,3.16.2h1L22.68,4.2a7.46,7.46,0,0,0,2.56-.32L26.91,5.6a7.79,7.79,0,0,0-1.11,2,48.37,48.37,0,0,1-6.6,11.2,99.39,99.39,0,0,1,13.31,12Z"/><path class="cls-1" d="M18.2,45.32a37.08,37.08,0,0,0-.2,5V73A36.26,36.26,0,0,0,18.2,78H14.76a49.56,49.56,0,0,0,.2-5V50.32a36.3,36.3,0,0,0-.2-5Z"/><line class="cls-2" x1="338.45" y1="1.64" x2="338.45" y2="81.47"/><line class="cls-2" x1="265.89" y1="1.64" x2="265.89" y2="81.47"/><line class="cls-2" x1="190.3" y1="1.64" x2="190.3" y2="81.47"/><line class="cls-2" x1="114.7" y1="1.64" x2="114.7" y2="125.94"/><line class="cls-2" x1="39.1" y1="1.64" x2="39.1" y2="81.47"/></g></g></svg>